<?xml version="1.0" encoding="UTF-8"?>
<svg width="120px" height="48px" viewBox="0 0 120 48" version="1.1" xmlns="http://www.w3.org/2000/svg" xmlns:xlink="http://www.w3.org/1999/xlink">
    <!-- Generator: Sketch 53.2 (72643) - https://sketchapp.com -->
    <title>Logo</title>
    <desc>Created with Sketch.</desc>
    <g id="Symbols" stroke="none" stroke-width="1" fill="none" fill-rule="evenodd">
        <g id="Item-/-Logo" fill="#00B350">
            <g id="Logo">
                <path d="M27.8393774,23.9541889 C27.8393774,10.7246384 17.1634241,0 3.9940856,0 L3.9940856,0.00109446254 C3.987393,0.00109446254 3.98085603,0 3.97416342,0 C1.77929961,0 -2.84217094e-14,1.78757003 -2.84217094e-14,3.992443 C-2.84217094e-14,6.19731596 1.77929961,7.98472964 3.97416342,7.98472964 C3.98085603,7.98472964 3.987393,7.98379153 3.9940856,7.98379153 L3.9940856,7.98472964 C12.7736965,7.98472964 19.8908949,15.1345407 19.8908949,23.9541889 C19.8908949,32.7738371 12.7736965,39.9236482 3.9940856,39.9236482 L3.9940856,39.9245863 C3.987393,39.9245863 3.98085603,39.9236482 3.97416342,39.9236482 C1.77929961,39.9236482 -2.84217094e-14,41.7110619 -2.84217094e-14,43.9159349 C-2.84217094e-14,46.1208078 1.77929961,47.9083779 3.97416342,47.9083779 C3.98085603,47.9083779 3.987393,47.9072834 3.9940856,47.9072834 L3.9940856,47.9083779 C17.1634241,47.9083779 27.8393774,37.1837394 27.8393774,23.9541889 M-2.84217094e-14,30.6347883 C-2.84217094e-14,32.8396612 1.77929961,34.6270749 3.97416342,34.6270749 C6.16902724,34.6270749 7.94832685,32.8396612 7.94832685,30.6347883 C7.94832685,28.429759 6.16902724,26.6423453 3.97416342,26.6423453 C1.77929961,26.6423453 -2.84217094e-14,28.429759 -2.84217094e-14,30.6347883 M-2.84217094e-14,17.3136156 C-2.84217094e-14,19.5184886 1.77929961,21.3059023 3.97416342,21.3059023 C6.16902724,21.3059023 7.94832685,19.5184886 7.94832685,17.3136156 C7.94832685,15.1085863 6.16902724,13.3211726 3.97416342,13.3211726 C1.77929961,13.3211726 -2.84217094e-14,15.1085863 -2.84217094e-14,17.3136156" id="Fill-1"></path>
                <path d="M54.1120623,19.2830228 C53.642179,17.9989055 52.9565759,16.9203909 52.0552529,16.0479479 C51.1537743,15.1753485 50.0448249,14.5167948 48.728249,14.0722866 C47.4115175,13.6276221 45.8080934,13.4054463 43.9179767,13.4054463 L38.4768872,13.4054463 C38.1162646,13.4054463 37.8130739,13.5123909 37.5673152,13.7264365 C37.3214008,13.9404821 37.1984436,14.2891466 37.1984436,14.7719609 L37.1984436,33.343114 C37.1984436,33.826241 37.3214008,34.1745928 37.5673152,34.3886384 C37.8130739,34.602684 38.1162646,34.7096287 38.4768872,34.7096287 L43.5411673,34.7096287 C45.4202335,34.7096287 47.0401556,34.5038697 48.4004669,34.0921954 C49.7607782,33.6806775 50.9162646,33.0360391 51.8667704,32.1578111 C52.8172763,31.2797394 53.5466148,30.146658 54.0546304,28.7579414 C54.5628016,27.3695375 54.8168093,25.6984495 54.8168093,23.7446775 C54.8168093,22.054671 54.5816342,20.5671401 54.1120623,19.2830228 L54.1120623,19.2830228 Z M49.9573541,27.1198436 C49.6894942,28.0418502 49.2854475,28.8129772 48.7445914,29.4329121 C48.2037354,30.0531596 47.5290272,30.5170554 46.7206226,30.8241303 C45.9119066,31.1315179 44.917821,31.2852117 43.7377432,31.2852117 L41.4924514,31.2852117 L41.4924514,16.7970293 L43.6722179,16.7970293 C44.9940856,16.7970293 46.0622568,16.9755831 46.8762646,17.3320651 C47.6901167,17.6888599 48.3567315,18.1855896 48.8757977,18.8220977 C49.3945525,19.4587622 49.7715175,20.210658 50.006537,21.0776287 C50.2414008,21.9447557 50.3589105,22.8831792 50.3589105,23.892899 C50.3589105,25.1222932 50.2250584,26.1978371 49.9573541,27.1198436 L49.9573541,27.1198436 Z M71.6155642,25.7203388 C71.6155642,24.688886 71.4845136,23.7338893 71.2222568,22.8556612 C70.96,21.9777459 70.5503502,21.2175635 69.9931518,20.5754267 C69.4357977,19.9332899 68.7229572,19.4312443 67.8543191,19.0689772 C66.9856809,18.7067101 65.9392996,18.5256547 64.7157977,18.5256547 C63.5575097,18.5256547 62.5168872,18.7178111 61.5936187,19.1019674 C60.6701946,19.4862801 59.8863813,20.0432052 59.2418677,20.7730554 C58.5970428,21.5030619 58.1053696,22.3920782 57.7668482,23.4401042 C57.4280156,24.488443 57.2588327,25.6656156 57.2588327,26.9716221 C57.2588327,28.3437655 57.4199222,29.540013 57.7422568,30.5606775 C58.0644358,31.5814984 58.553463,32.4268925 59.2090272,33.0962345 C59.8645914,33.7657329 60.6812451,34.2651205 61.6592996,34.5943974 C62.6368872,34.9236743 63.7760311,35.0883127 65.0764202,35.0883127 C65.7975097,35.0883127 66.4748638,35.0415635 67.1086381,34.9483779 C67.7421012,34.8550358 68.3050584,34.7451205 68.7967315,34.619101 C69.2884047,34.4930814 69.6924514,34.3639349 70.0094942,34.2321303 C70.3262257,34.1004821 70.5201556,33.9963518 70.591284,33.9194267 C70.6622568,33.842658 70.7195331,33.7629186 70.7634241,33.6806775 C70.8068482,33.5982801 70.8396887,33.4969642 70.8617899,33.3761042 C70.8834241,33.2554007 70.8999222,33.1101498 70.9108171,32.9397264 C70.9217121,32.769772 70.9273152,32.564013 70.9273152,32.3224495 C70.9273152,32.0482085 70.9190661,31.8202476 70.9027237,31.6391922 C70.8863813,31.4579805 70.8560311,31.3180456 70.812607,31.2192313 C70.768716,31.1205733 70.7142412,31.0520912 70.648716,31.0134723 C70.583035,30.9751661 70.5011673,30.9559349 70.4028016,30.9559349 C70.2389105,30.9559349 70.0258366,31.0081564 69.7635798,31.1122866 C69.5014786,31.2167296 69.1708949,31.3319609 68.7721401,31.4579805 C68.3730739,31.5843127 67.9007004,31.699544 67.3543969,31.8038306 C66.8079377,31.9082736 66.1744747,31.9601824 65.4533852,31.9601824 C64.7428794,31.9601824 64.1340078,31.8669967 63.6259922,31.6803127 C63.117821,31.493785 62.7025681,31.222202 62.3803891,30.8654072 C62.0578988,30.5087687 61.8231907,30.0750489 61.675642,29.5647166 C61.5280934,29.0543844 61.4543191,28.4863583 61.4543191,27.8606384 L70.3536187,27.8606384 C70.7469261,27.8606384 71.0555642,27.7400912 71.2796887,27.4985277 C71.5035019,27.2571205 71.6155642,26.8839088 71.6155642,26.3788925 L71.6155642,25.7203388 Z M61.4543191,25.1935896 C61.4761089,24.677785 61.5553307,24.192 61.6919844,23.7365472 C61.8284825,23.2810945 62.025214,22.8859935 62.2820233,22.5510879 C62.538677,22.2163388 62.8610117,21.950228 63.2490272,21.7525993 C63.6367315,21.5549707 64.0930739,21.4563127 64.6174319,21.4563127 C65.6554086,21.4563127 66.4228794,21.7884039 66.9201556,22.4522736 C67.4171206,23.116456 67.6494942,24.0303322 67.6166537,25.1935896 L61.4543191,25.1935896 Z M98.2642802,24.7490814 C98.2642802,23.904 98.1766537,23.1026971 98.0020233,22.345329 C97.8272374,21.5879609 97.5349416,20.9269055 97.1252918,20.3613811 C96.7154864,19.7961694 96.1772763,19.3488469 95.5109728,19.01957 C94.844358,18.6902932 94.0249027,18.5256547 93.052607,18.5256547 C92.6264591,18.5256547 92.2085603,18.5778762 91.7987549,18.6821629 C91.3891051,18.7866059 90.9792996,18.9454593 90.5696498,19.1595049 C90.1598444,19.3735505 89.7445914,19.6509186 89.3240467,19.9909837 C88.9033463,20.3313616 88.4743969,20.7375635 88.0375097,21.2092769 C87.8515175,20.8033876 87.6221012,20.4354919 87.3491051,20.106215 C87.0759533,19.7769381 86.7509728,19.4944104 86.3740078,19.2583192 C85.9970428,19.0223844 85.5680934,18.841329 85.0874708,18.7149967 C84.606537,18.5889772 84.0656809,18.5256547 83.4649027,18.5256547 C82.5906615,18.5256547 81.7522179,18.745329 80.9492607,19.1842085 C80.1461479,19.6234007 79.3402335,20.2819544 78.5318288,21.1598697 L78.5318288,19.4640782 C78.5318288,19.3544756 78.5044358,19.2583192 78.4498054,19.1760782 C78.3950195,19.0936808 78.3049027,19.0251987 78.1794553,18.9701629 C78.0536965,18.9154397 77.8762646,18.8743192 77.6468482,18.8468013 C77.4174319,18.8194397 77.1277821,18.8055244 76.7782101,18.8055244 C76.4393774,18.8055244 76.1579767,18.8194397 75.9341634,18.8468013 C75.7100389,18.8743192 75.5270039,18.9154397 75.3850584,18.9701629 C75.2429572,19.0251987 75.1445914,19.0936808 75.0901167,19.1760782 C75.0353307,19.2583192 75.0080934,19.3544756 75.0080934,19.4640782 L75.0080934,34.1498893 C75.0080934,34.2596482 75.0409339,34.3556482 75.1064591,34.4380456 C75.1719844,34.5202866 75.2838911,34.5889251 75.4424903,34.6438046 C75.6007782,34.6988404 75.8112062,34.7398046 76.073463,34.7673225 C76.3357198,34.7945277 76.6687938,34.808443 77.0731518,34.808443 C77.4773541,34.808443 77.8107393,34.7945277 78.0729961,34.7673225 C78.3350973,34.7398046 78.5453696,34.6988404 78.7039689,34.6438046 C78.8621012,34.5889251 78.9743191,34.5202866 79.0398444,34.4380456 C79.1053696,34.3556482 79.1382101,34.2596482 79.1382101,34.1498893 L79.1382101,24.3868143 C79.7171984,23.6516482 80.2580545,23.0917524 80.7607782,22.7074397 C81.2631907,22.3234397 81.7659144,22.1312834 82.2684825,22.1312834 C82.6619455,22.1312834 83.00607,22.2110228 83.3010117,22.3700326 C83.5961089,22.5291987 83.8362646,22.7543453 84.0221012,23.0450033 C84.2077821,23.3359739 84.3470817,23.6844821 84.4401556,24.0905277 C84.5327626,24.4967296 84.5794553,24.9465537 84.5794553,25.4404691 L84.5794553,34.1498893 C84.5794553,34.2596482 84.6121401,34.3556482 84.6776654,34.4380456 C84.7433463,34.5202866 84.8552529,34.5889251 85.0136965,34.6438046 C85.1719844,34.6988404 85.3824125,34.7398046 85.6446693,34.7673225 C85.9069261,34.7945277 86.24,34.808443 86.644358,34.808443 C87.037821,34.808443 87.3656031,34.7945277 87.6277043,34.7673225 C87.8899611,34.7398046 88.1002335,34.6988404 88.258677,34.6438046 C88.416965,34.5889251 88.5291829,34.5202866 88.5947082,34.4380456 C88.6602335,34.3556482 88.6930739,34.2596482 88.6930739,34.1498893 L88.6930739,24.3868143 C89.2831128,23.6516482 89.8292607,23.0917524 90.3319844,22.7074397 C90.8343969,22.3234397 91.3316732,22.1312834 91.8233463,22.1312834 C92.2275486,22.1312834 92.5744747,22.2110228 92.8641245,22.3700326 C93.153463,22.5291987 93.39393,22.7543453 93.585214,23.0450033 C93.7761868,23.3359739 93.9184436,23.6844821 94.0113619,24.0905277 C94.1039689,24.4967296 94.1506615,24.9465537 94.1506615,25.4404691 L94.1506615,34.1498893 C94.1506615,34.2596482 94.1805447,34.3556482 94.2407782,34.4380456 C94.3007004,34.5202866 94.4101167,34.5889251 94.5685603,34.6438046 C94.7268482,34.6988404 94.9372763,34.7398046 95.1995331,34.7673225 C95.4617899,34.7945277 95.8003113,34.808443 96.2157198,34.808443 C96.6197665,34.808443 96.9531518,34.7945277 97.2154086,34.7673225 C97.4776654,34.7398046 97.6849805,34.6988404 97.8381323,34.6438046 C97.9911284,34.5889251 98.1003891,34.5202866 98.1659144,34.4380456 C98.2314397,34.3556482 98.2642802,34.2596482 98.2642802,34.1498893 L98.2642802,24.7490814 Z M106.44249,19.4970684 C106.44249,19.3874658 106.40965,19.2913094 106.344125,19.2089121 C106.278599,19.126671 106.166381,19.0553746 106.008093,18.9948664 C105.84965,18.934671 105.639377,18.8879218 105.377121,18.8549316 C105.114864,18.8220977 104.781479,18.8055244 104.377432,18.8055244 C103.973074,18.8055244 103.64,18.8220977 103.377743,18.8549316 C103.115486,18.8879218 102.904903,18.934671 102.74677,18.9948664 C102.588171,19.0553746 102.476265,19.126671 102.410739,19.2089121 C102.345214,19.2913094 102.312374,19.3874658 102.312374,19.4970684 L102.312374,34.1498893 C102.312374,34.2596482 102.345214,34.3556482 102.410739,34.4380456 C102.476265,34.5202866 102.588171,34.5889251 102.74677,34.6438046 C102.904903,34.6988404 103.115486,34.7398046 103.377743,34.7673225 C103.64,34.7945277 103.973074,34.808443 104.377432,34.808443 C104.781479,34.808443 105.114864,34.7945277 105.377121,34.7673225 C105.639377,34.7398046 105.84965,34.6988404 106.008093,34.6438046 C106.166381,34.5889251 106.278599,34.5202866 106.344125,34.4380456 C106.40965,34.3556482 106.44249,34.2596482 106.44249,34.1498893 L106.44249,19.4970684 Z M106.262101,12.8210033 C105.934319,12.5081433 105.311595,12.3517915 104.393774,12.3517915 C103.465058,12.3517915 102.834086,12.513772 102.500856,12.8374202 C102.167471,13.1612248 102.000934,13.7403518 102.000934,14.5743322 C102.000934,15.3756352 102.162023,15.9300586 102.484514,16.2372899 C102.806693,16.5446775 103.432218,16.698215 104.361089,16.698215 C105.278755,16.698215 105.906926,16.5392052 106.245759,16.2207166 C106.58428,15.9025407 106.753774,15.326228 106.753774,14.4920912 C106.753774,13.6909446 106.590039,13.1337068 106.262101,12.8210033 L106.262101,12.8210033 Z M119.930739,19.8921694 C119.919689,19.6617068 119.903346,19.4887818 119.881556,19.3735505 C119.859455,19.2583192 119.834864,19.1677915 119.807782,19.1019674 C119.780389,19.0361433 119.736498,18.9757915 119.676732,18.9207557 C119.616498,18.8660326 119.520934,18.8138111 119.389883,18.7644039 C119.258677,18.7149967 119.105525,18.6712182 118.930895,18.6327557 C118.756109,18.5942932 118.58677,18.5667752 118.422879,18.5503583 C118.258988,18.5339414 118.105837,18.5256547 117.964047,18.5256547 C117.658054,18.5256547 117.351907,18.5667752 117.046226,18.6491726 C116.740233,18.7314137 116.434241,18.8771336 116.128405,19.0853941 C115.822412,19.2941238 115.499922,19.5768078 115.161401,19.9332899 C114.822724,20.2900847 114.462101,20.7428795 114.079844,21.2916743 L114.079844,19.4640782 C114.079844,19.3544756 114.052451,19.2583192 113.997821,19.1760782 C113.943035,19.0936808 113.852918,19.0251987 113.727471,18.9701629 C113.601712,18.9154397 113.42428,18.8743192 113.194708,18.8468013 C112.965292,18.8194397 112.675642,18.8055244 112.32607,18.8055244 C111.987393,18.8055244 111.705837,18.8194397 111.482179,18.8468013 C111.258054,18.8743192 111.074864,18.9154397 110.933074,18.9701629 C110.790973,19.0251987 110.692607,19.0936808 110.638132,19.1760782 C110.583191,19.2583192 110.556109,19.3544756 110.556109,19.4640782 L110.556109,34.1498893 C110.556109,34.2596482 110.588949,34.3556482 110.654475,34.4380456 C110.72,34.5202866 110.831907,34.5889251 110.990506,34.6438046 C111.148638,34.6988404 111.359222,34.7398046 111.621479,34.7673225 C111.88358,34.7945277 112.216809,34.808443 112.621167,34.808443 C113.025214,34.808443 113.358599,34.7945277 113.620856,34.7673225 C113.883113,34.7398046 114.093385,34.6988404 114.251829,34.6438046 C114.410117,34.5889251 114.522335,34.5202866 114.58786,34.4380456 C114.653385,34.3556482 114.686226,34.2596482 114.686226,34.1498893 L114.686226,24.9959609 C114.991907,24.5131466 115.278755,24.1069446 115.546615,23.7776678 C115.814163,23.4483909 116.071128,23.1849381 116.316887,22.9874658 C116.562802,22.7898371 116.800311,22.64443 117.029883,22.5510879 C117.2593,22.4579023 117.488716,22.4111531 117.718132,22.4111531 C117.914864,22.4111531 118.095097,22.4303844 118.258988,22.4688469 C118.422879,22.5073094 118.572918,22.5485863 118.709728,22.5922085 C118.846226,22.6362997 118.969183,22.6774202 119.078444,22.7157264 C119.187549,22.7543453 119.285914,22.7734202 119.373385,22.7734202 C119.48249,22.7734202 119.572763,22.7460586 119.643891,22.6910228 C119.714864,22.6362997 119.77214,22.5374853 119.816031,22.3947362 C119.859455,22.2521433 119.892296,22.054671 119.914241,21.8020065 C119.936031,21.5496547 119.947082,21.2256938 119.947082,20.8305928 C119.947082,20.4354919 119.941479,20.1226319 119.930739,19.8921694 L119.930739,19.8921694 Z" id="Fill-3"></path>
            </g>
        </g>
    </g>
</svg>